<svg xmlns="http://www.w3.org/2000/svg" width="1024" height="1024" viewBox="0 0 1024 1024">
  <g transform="translate(96 96) scale(1.69105691) translate(-266 -246)">
  <rect x="266" y="246" width="492" height="492" rx="118" fill="#f6f7f1"/>
  <g fill="#4d5944">
    <path d="M420 323h147c66 0 116 43 116 101 0 43-26 78-66 93l57 73c16 20 2 50-24 50h-33c-11 0-21-5-28-14l-79-103h-47v81c0 20-16 36-36 36h-7c-20 0-36-16-36-36V359c0-20 16-36 36-36zm39 74v60h98c28 0 48-12 48-31 0-18-20-29-48-29h-98z"/>
    <circle cx="346" cy="416" r="34"/>
    <path d="M332 531c0-21 17-38 38-38h34c21 0 38 17 38 38s-17 38-38 38h-34c-21 0-38-17-38-38z"/>
  </g>
  </g>
</svg>
